<svg xmlns="http://www.w3.org/2000/svg" viewBox="0 0 900 240" role="img" aria-label="SWU Trade">
  <defs>
    <linearGradient id="bg" x1="0" y1="0" x2="1" y2="1">
      <stop offset="0%" stop-color="#0a0e1a"/>
      <stop offset="100%" stop-color="#111627"/>
    </linearGradient>
    <radialGradient id="glow" cx="50%" cy="55%" r="50%">
      <stop offset="0%" stop-color="#FFD700" stop-opacity="1"/>
      <stop offset="100%" stop-color="#F5A623" stop-opacity="0"/>
    </radialGradient>
    <linearGradient id="gold" x1="0" y1="0" x2="0" y2="1">
      <stop offset="0%" stop-color="#FFD700"/>
      <stop offset="100%" stop-color="#F5A623"/>
    </linearGradient>
    <filter id="shadow">
      <feDropShadow dx="0" dy="3" stdDeviation="3" flood-opacity="0.5"/>
    </filter>
  </defs>

  <rect width="900" height="240" rx="16" fill="url(#bg)"/>
  <rect x="0.5" y="0.5" width="899" height="239" rx="16" fill="none" stroke="#F5A623" stroke-opacity="0.25"/>

  <g transform="translate(60 40) scale(1.6)">
    <g transform="translate(0 -8)">
      <circle cx="50" cy="55" r="18" fill="url(#glow)" opacity="0.55"/>
      <g transform="translate(38 58) rotate(-18)" filter="url(#shadow)">
        <rect x="-17" y="-25" width="34" height="50" rx="4" fill="#0f3f2f" stroke="#34d399" stroke-width="3"/>
        <rect x="-12" y="-20" width="24" height="26" rx="2" fill="#065f46" opacity="0.7"/>
      </g>
      <g transform="translate(62 58) rotate(18)" filter="url(#shadow)">
        <rect x="-17" y="-25" width="34" height="50" rx="4" fill="#0f2a52" stroke="#60a5fa" stroke-width="3"/>
        <rect x="-12" y="-20" width="24" height="26" rx="2" fill="#1e3a8a" opacity="0.7"/>
      </g>
      <circle cx="50" cy="48" r="5" fill="#FFD700"/>
      <circle cx="50" cy="48" r="7" fill="none" stroke="#FFA500" stroke-width="1" opacity="0.7"/>
    </g>
  </g>

  <g font-family="'Helvetica Neue', Arial, sans-serif" font-weight="900">
    <text x="240" y="122" font-size="72" fill="url(#gold)" letter-spacing="4">SWU TRADE</text>
    <text x="242" y="162" font-size="18" fill="#9ca3af" letter-spacing="2" font-weight="500">
      STAR WARS: UNLIMITED TRADE CALCULATOR
    </text>
    <rect x="242" y="178" width="60" height="3" fill="url(#gold)"/>
  </g>
</svg>
